:FULLY-SPECIFIED
:FORCE-ALL-JOINTS-BE-3DOF
:DEGREES
1
root 7.46593 15.9937 -36.7321 7.11356 1.31487 -3.66776
lfemur -40.6897 6.42258 -16.3516
ltibia 43.9106 0 0
lfoot -14.6186 8.34667 0
ltoes -11.8487 0 0
rfemur -9.89801 4.72659 30.1099
rtibia 24.1198 0 0
rfoot 0 0 0
rtoes 0 0 0
lowerback -4.29912 0.189404 0.939401
upperback -1.51886 0.185188 2.55702
thorax 0.845091 0.0960327 2.10705
lowerneck -18.6579 -5.17414 -13.3376
upperneck 13.6797 -6.63107 16.9236
head 8.38994 -2.28192 7.17028
lclavicle 6.33626e-15 1.59028e-14 0
lhumerus -35.9267 -2.97855 86.2544
lradius 27.4056 0 0
lwrist 7.30557 0 0
lhand -13.3003 -23.0211 0
lfingers 7.12502 0 0
lthumb 12.8038 6.56624 0
rclavicle 6.33626e-15 1.59028e-14 0
rhumerus -38.7688 17.4551 -84.1031
rradius 56.1989 0 0
rwrist -28.5696 0 0
rhand -33.2015 -25.7513 0
rfingers 7.12502 0 0
rthumb -6.4087 -55.6344 0
2
root 7.44964 15.9965 -36.7452 7.11916 1.14121 -3.8077
lfemur -40.5848 5.54021 -15.4357
ltibia 41.8759 0 0
lfoot -15.4449 9.25444 0
ltoes -12.4018 0 0
rfemur -9.52104 4.84138 30.3807
rtibia 23.4305 0 0
rfoot -1.39394 -0.140187 0
rtoes 0.782611 0 0
lowerback -4.36118 0.260107 1.14367
upperback -1.50747 0.265885 2.49748
thorax 0.895726 0.137794 1.93743
lowerneck -18.6489 -5.15304 -13.184
upperneck 13.7768 -6.64534 16.854
head 8.41477 -2.28456 7.11886
lclavicle 5.70298e-15 1.34598e-14 0
lhumerus -36.0472 -3.44253 86.3645
lradius 27.7423 0 0
lwrist 7.6062 0 0
lhand -13.7258 -23.1823 0
lfingers 7.12502 0 0
lthumb 12.3974 6.47644 0
rclavicle 5.70298e-15 1.34598e-14 0
rhumerus -38.7556 17.5132 -84.2762
rradius 56.8438 0 0
rwrist -29.1557 0 0
rhand -32.944 -25.9829 0
rfingers 7.12502 0 0
rthumb -6.16001 -55.8713 0
3
root 7.43787 15.9977 -36.7307 7.12682 0.93158 -3.95267
lfemur -40.4985 4.71297 -14.5515
ltibia 39.9098 0 0
lfoot -16.1653 10.1104 0
ltoes -12.8864 0 0
rfemur -9.01242 4.95571 30.6266
rtibia 22.6707 0 0
rfoot -2.7277 -0.269706 0
rtoes 1.37818 0 0
lowerback -4.43865 0.331415 1.34498
upperback -1.49572 0.346612 2.44726
thorax 0.955004 0.179502 1.77944
lowerneck -18.6515 -5.13047 -13.034
upperneck 13.8794 -6.65445 16.7779
head 8.44257 -2.28517 7.06668
lclavicle 5.06859e-15 1.11651e-14 0
lhumerus -36.1986 -3.89892 86.4917
lradius 28.0434 0 0
lwrist 7.85632 0 0
lhand -14.0445 -23.3102 0
lfingers 7.12502 0 0
lthumb 12.0933 6.4062 0
rclavicle 5.06859e-15 1.11651e-14 0
rhumerus -38.7745 17.5798 -84.4847
rradius 57.4534 0 0
rwrist -29.7074 0 0
rhand -32.6937 -26.2389 0
rfingers 7.12502 0 0
rthumb -5.91841 -56.1326 0
4
root 7.43036 15.9973 -36.6905 7.13636 0.689308 -4.10179
lfemur -40.4296 3.93996 -13.7001
ltibia 38.0146 0 0
lfoot -16.7848 10.9151 0
ltoes -13.3055 0 0
rfemur -8.3834 5.06919 30.8484
rtibia 21.8481 0 0
rfoot -4.00069 -0.388846 0
rtoes 1.79788 0 0
lowerback -4.53015 0.403024 1.54279
upperback -1.48369 0.427071 2.40587
thorax 1.02209 0.221007 1.63281
lowerneck -18.665 -5.10662 -12.8877
upperneck 13.9868 -6.65875 16.6962
head 8.47304 -2.28388 7.01398
lclavicle 4.43549e-15 9.01661e-15 0
lhumerus -36.3783 -4.34658 86.6344
lradius 28.3106 0 0
lwrist 8.05863 0 0
lhand -14.2629 -23.4068 0
lfingers 7.12502 0 0
lthumb 11.8854 6.35438 0
rclavicle 4.43549e-15 9.01661e-15 0
rhumerus -38.8231 17.6539 -84.7254
rradius 58.028 0 0
rwrist -30.2252 0 0
rhand -32.4513 -26.5167 0
rfingers 7.12502 0 0
rthumb -5.68426 -56.4155 0
5
root 7.42682 15.9956 -36.6266 7.1476 0.41773 -4.25417
lfemur -40.3774 3.22026 -12.8822
ltibia 36.1926 0 0
lfoot -17.3083 11.6692 0
ltoes -13.6624 0 0
rfemur -7.64522 5.18144 31.0471
rtibia 20.9707 0 0
rfoot -5.21234 -0.497892 0
rtoes 2.05286 0 0
lowerback -4.6343 0.47463 1.7366
upperback -1.47144 0.506965 2.37284
thorax 1.09616 0.262161 1.49729
lowerneck -18.6885 -5.08169 -12.7457
upperneck 14.0982 -6.65856 16.6094
head 8.50586 -2.28084 6.96101
lclavicle 3.80607e-15 7.0121e-15 0
lhumerus -36.5834 -4.7844 86.7908
lradius 28.5451 0 0
lwrist 8.2158 0 0
lhand -14.3874 -23.4739 0
lfingers 7.12502 0 0
lthumb 11.7675 6.31984 0
rclavicle 3.80607e-15 7.0121e-15 0
rhumerus -38.8991 17.7347 -84.9949
rradius 58.5679 0 0
rwrist -30.7095 0 0
rhand -32.2169 -26.8137 0
rfingers 7.12502 0 0
rthumb -5.45796 -56.7175 0
6
root 7.42697 15.9926 -36.5412 7.16038 0.120179 -4.40891
lfemur -40.3406 2.55299 -12.0991
ltibia 34.446 0 0
lfoot -17.7407 12.3731 0
ltoes -13.96 0 0
rfemur -6.80915 5.29207 31.2236
rtibia 20.046 0 0
rfoot -6.36206 -0.597133 0
rtoes 2.1543 0 0
lowerback -4.74972 0.545928 1.92586
upperback -1.45904 0.585996 2.34768
thorax 1.17636 0.302815 1.37265
lowerneck -18.7211 -5.05584 -12.608
upperneck 14.2128 -6.65423 16.5185
head 8.54071 -2.27619 6.90802
lclavicle 3.18275e-15 5.14939e-15 0
lhumerus -36.8113 -5.21124 86.9594
lradius 28.7485 0 0
lwrist 8.33053 0 0
lhand -14.4245 -23.5135 0
lfingers 7.12502 0 0
lthumb 11.7334 6.30146 0
rclavicle 3.18275e-15 5.14939e-15 0
rhumerus -39.0001 17.8215 -85.29
rradius 59.0733 0 0
rwrist -31.1608 0 0
rhand -31.991 -27.127 0
rfingers 7.12502 0 0
rthumb -5.23988 -57.0356 0
7
root 7.43053 15.9884 -36.4362 7.17451 -0.200013 -4.56513
lfemur -40.3184 1.93722 -11.3515
ltibia 32.7772 0 0
lfoot -18.087 13.0275 0
ltoes -14.2016 0 0
rfemur -5.88644 5.4007 31.3787
rtibia 19.0821 0 0
rfoot -7.44925 -0.686856 0
rtoes 2.11335 0 0
lowerback -4.87503 0.616616 2.11007
upperback -1.44655 0.663868 2.32991
thorax 1.26188 0.34282 1.25861
lowerneck -18.762 -5.02928 -12.4751
upperneck 14.3299 -6.64608 16.424
head 8.57728 -2.27008 6.85525
lclavicle 2.56792e-15 3.42629e-15 0
lhumerus -37.0591 -5.62598 87.1383
lradius 28.9221 0 0
lwrist 8.40552 0 0
lhand -14.3806 -23.5275 0
lfingers 7.12502 0 0
lthumb 11.7768 6.29807 0
rclavicle 2.56792e-15 3.42629e-15 0
rhumerus -39.1238 17.9132 -85.6074
rradius 59.5445 0 0
rwrist -31.5794 0 0
rhand -31.7741 -27.4542 0
rfingers 7.12502 0 0
rthumb -5.03039 -57.3674 0
8
root 7.43722 15.9831 -36.3136 7.18983 -0.539511 -4.72194
lfemur -40.3097 1.37205 -10.6405
ltibia 31.1885 0 0
lfoot -18.352 13.6328 0
ltoes -14.3902 0 0
rfemur -4.88834 5.50695 31.5132
rtibia 18.0867 0 0
rfoot -8.47333 -0.767347 0
rtoes 1.94119 0 0
lowerback -5.00883 0.686388 2.28868
upperback -1.43406 0.740281 2.31906
thorax 1.35187 0.382028 1.15495
lowerneck -18.8104 -5.00219 -12.3472
upperneck 14.4486 -6.63445 16.3268
head 8.61526 -2.26264 6.80294
lclavicle 1.96397e-15 1.84061e-15 0
lhumerus -37.3241 -6.02749 87.3259
lradius 29.0674 0 0
lwrist 8.44343 0 0
lhand -14.2621 -23.5177 0
lfingers 7.12502 0 0
lthumb 11.8917 6.30856 0
rclavicle 1.96397e-15 1.84061e-15 0
rhumerus -39.2678 18.0092 -85.9438
rradius 59.9819 0 0
rwrist -31.9658 0 0
rhand -31.5664 -27.7924 0
rfingers 7.12502 0 0
rthumb -4.82988 -57.7101 0
